PathFileType  4	(X/Y/Z) C:\Users\antoi\Documents\MyRepositories\mobilecap\ResultsAnalysis
DataRate	CameraRate	NumFrames	NumMarkers	Units	OrigDataRate	OrigDataStartFrame	OrigNumFrames
100.0	100.0	4	51	mm	100.0	916	1831
Frame#	Time	r_knee			r_shank_antsup			r_ankle			r_calc			r_5meta			r_toe			L_knee			L_shank_antsup			L_ankle			L_calc			L_5meta			L_toe			r_sh2			r_sh3			r_sh4			L_sh2			L_sh3			r_thigh1			r_thigh2			r_thigh3			r_thigh4			r_thigh5			L_thigh1			L_thigh2			L_thigh3			L_thigh4			r.ASIS			r.PSIS			L.ASIS			L.PSIS			C7			R_Shoulder			L_Shoulder			R_Sternum			L_Sternum			R_humerus			R_elbow_med			R_elbow_lat			R_forearm			R_wrist_radius			R_wrist_ulna			L_humerus			L_elbow_med			L_elbow_lat			L_forearm			L_wrist_radius			L_wrist_ulna			R_HJC			L_HJC			R_HJC_reg			L_HJC_reg			
		X1	Y1	Z1	X2	Y2	Z2	X3	Y3	Z3	X4	Y4	Z4	X5	Y5	Z5	X6	Y6	Z6	X7	Y7	Z7	X8	Y8	Z8	X9	Y9	Z9	X10	Y10	Z10	X11	Y11	Z11	X12	Y12	Z12	X13	Y13	Z13	X14	Y14	Z14	X15	Y15	Z15	X16	Y16	Z16	X17	Y17	Z17	X18	Y18	Z18	X19	Y19	Z19	X20	Y20	Z20	X21	Y21	Z21	X22	Y22	Z22	X23	Y23	Z23	X24	Y24	Z24	X25	Y25	Z25	X26	Y26	Z26	X27	Y27	Z27	X28	Y28	Z28	X29	Y29	Z29	X30	Y30	Z30	X31	Y31	Z31	X32	Y32	Z32	X33	Y33	Z33	X34	Y34	Z34	X35	Y35	Z35	X36	Y36	Z36	X37	Y37	Z37	X38	Y38	Z38	X39	Y39	Z39	X40	Y40	Z40	X41	Y41	Z41	X42	Y42	Z42	X43	Y43	Z43	X44	Y44	Z44	X45	Y45	Z45	X46	Y46	Z46	X47	Y47	Z47	X48	Y48	Z48	X49	Y49	Z49	X50	Y50	Z50	X51	Y51	Z51	

916	9.15000000	-281.57725	524.13768	-407.87256	-207.59922	445.36785	-411.98558	-287.10107	120.60628	-427.25110	-366.77333	71.83666	-476.29877	-175.96474	50.68241	-377.30176	-116.31960	85.54986	-434.56659	-295.67263	525.79412	-852.57546	-263.24088	451.57726	-875.58795	-292.02012	122.96088	-825.77169	-367.71020	72.17384	-765.86535	-181.55569	52.38177	-864.88595	-120.29577	86.12375	-807.62651	-224.49096	335.12936	-388.64411	-271.58686	461.38571	-374.34137	-303.11762	351.15889	-368.89980	-353.20954	452.14358	-863.96269	-340.49723	330.60889	-860.14768	-588.76671	592.40420	-434.68298	-483.78673	602.76067	-432.47760	-456.77315	554.58249	-390.69290	-580.07067	481.53384	-418.96686	-465.92994	499.59580	-403.97932	-570.23743	607.58213	-816.09981	-430.51092	619.41727	-824.49335	-564.44358	506.33918	-857.08471	-427.94397	513.72932	-867.31086	-616.19358	627.11300	-503.75389	-797.55538	614.23069	-563.00650	-631.65636	618.21339	-747.75637	-809.76274	613.46469	-669.45578	-481.04039	1092.08504	-641.17920	-426.52574	1015.45356	-485.78619	-455.83434	1022.36322	-804.70374	-392.58452	967.31601	-619.32306	-398.90776	963.59652	-674.30301	-399.40887	905.36209	-387.62064	-403.94394	695.75010	-338.54857	-394.19738	754.36414	-269.78706	-238.60059	796.32179	-319.99660	-173.17912	840.72879	-370.03511	-159.68730	804.09779	-345.15942	-469.66656	935.14296	-908.33133	-435.58061	688.30744	-918.61855	-428.57297	736.42476	-994.54812	-358.45436	768.07858	-986.63584	-211.14561	828.04251	-922.69850	-194.76733	794.90246	-940.61142	-680.24418	500.80889	-514.88646	-698.02201	500.07600	-721.08059	-660.56112	535.44655	-532.31119	-678.95709	534.29183	-692.72787	
917	9.16000000	-282.69398	524.39703	-408.12320	-208.74659	445.74783	-412.32668	-287.16115	120.64669	-427.22625	-366.81914	71.81499	-476.26383	-175.99335	50.64627	-377.28900	-116.30418	85.43077	-434.63738	-297.11371	525.78971	-852.50163	-264.69362	451.87134	-875.92082	-292.16032	123.05420	-825.91676	-367.71143	72.23904	-765.92323	-181.55641	52.34684	-864.90073	-120.32113	86.09823	-807.64969	-225.25438	335.47954	-388.75684	-272.89691	462.23429	-374.48676	-304.07375	351.61352	-369.08638	-354.66989	451.89158	-863.81606	-341.55147	330.56870	-860.34750	-590.29659	591.64096	-434.66368	-485.13149	602.49577	-432.26863	-457.93230	554.12690	-390.78698	-581.06042	481.05841	-418.82870	-467.04195	499.29941	-404.18845	-571.70009	606.70437	-815.89651	-432.44055	619.20970	-823.87240	-565.80259	505.65679	-857.02161	-429.41263	513.63695	-867.54262	-619.90823	627.51288	-503.72315	-801.23261	611.86071	-562.88992	-634.99218	618.42731	-747.83426	-813.26906	610.96506	-669.58358	-494.52951	1096.54458	-640.42009	-438.68782	1021.18445	-484.58457	-468.71285	1027.73441	-804.69000	-404.12541	973.13102	-618.29092	-410.35075	969.83535	-673.69875	-412.14000	908.81491	-386.97756	-417.45923	698.60908	-339.89896	-407.75672	756.71629	-270.59790	-252.24875	799.18750	-320.86336	-187.06435	844.15698	-370.58137	-173.39381	807.44969	-346.02735	-483.04355	938.73768	-907.35767	-449.81298	691.56111	-916.03882	-443.17059	738.95698	-992.12792	-373.02912	770.80417	-984.78602	-225.45946	831.53129	-922.22324	-209.18790	798.09937	-939.76778	-682.08010	500.24307	-514.91033	-699.72949	499.28991	-721.11531	-662.95404	535.11837	-532.40790	-681.06192	533.77082	-692.91575	
918	9.17000000	-283.76470	524.56966	-408.32955	-209.85560	446.05727	-412.58967	-287.16195	120.69258	-427.19943	-366.88122	71.82284	-476.09308	-175.93887	50.59091	-377.24152	-116.24234	85.16095	-434.88778	-298.49959	525.67462	-852.45805	-266.05518	451.93261	-876.16379	-292.21967	123.10730	-826.00756	-367.77409	72.22398	-765.92236	-181.53648	52.24850	-864.93633	-120.29184	85.90107	-807.58186	-226.08123	335.86102	-388.69101	-274.09067	462.80987	-374.92031	-304.78201	351.97250	-369.03786	-356.03431	451.85019	-864.13231	-342.50858	330.58413	-860.58936	-591.83716	591.00872	-434.45247	-486.40475	602.04650	-432.08226	-459.07621	553.73087	-390.64380	-581.91319	480.34116	-418.97330	-468.07321	498.99269	-404.15989	-573.19045	605.84997	-815.67669	-434.31797	618.71119	-823.12940	-567.05760	504.96789	-857.16328	-430.83539	513.37383	-867.67147	-623.46621	627.85711	-503.63085	-804.75057	609.41140	-562.81433	-638.37504	618.67558	-748.05426	-816.59908	608.39951	-669.72313	-507.96432	1100.64394	-639.74540	-450.89790	1026.36195	-483.40437	-481.46054	1032.89086	-804.77490	-415.66886	978.77241	-617.44595	-421.79967	975.67103	-673.02082	-424.96321	911.96607	-386.31008	-431.00504	701.23063	-341.35562	-421.26339	758.66721	-271.62573	-265.96216	801.65716	-321.67150	-200.88250	847.04393	-371.24788	-187.11066	810.34944	-346.77292	-496.40441	941.87216	-906.28966	-464.26039	694.33256	-913.62185	-457.89033	741.10565	-989.63493	-387.66868	773.01556	-982.92799	-239.77867	834.28997	-921.42778	-223.66291	800.72349	-938.84648	-683.73369	499.63453	-515.02229	-701.33327	498.53451	-721.23054	-665.25043	534.72091	-532.48937	-683.06534	533.19935	-693.23058	
919	9.18000000	-284.75522	524.66446	-408.61947	-210.84403	446.36263	-412.74023	-287.10355	120.79566	-427.13929	-366.83147	71.94823	-475.95388	-175.86614	50.47451	-377.19744	-116.16596	84.86886	-435.13821	-299.80435	525.73548	-852.78736	-267.36158	451.86174	-876.20486	-292.21439	123.12698	-826.03535	-367.81298	72.19941	-765.90317	-181.50784	52.12496	-864.99915	-120.24257	85.66880	-807.52598	-226.83263	336.22364	-388.70626	-275.09176	463.13972	-375.13600	-305.36936	352.14126	-368.94946	-357.29964	451.83926	-864.57659	-343.31477	330.50526	-860.75425	-593.38211	590.57598	-434.00442	-487.58728	601.42292	-431.94514	-460.21952	553.42829	-390.42572	-582.75164	479.41914	-419.29722	-469.02437	498.66308	-403.93351	-574.81718	605.09174	-815.43430	-435.95335	618.07012	-822.79379	-568.27507	504.22588	-857.34872	-432.08673	513.00039	-867.86444	-626.98387	628.40617	-503.31610	-808.21207	607.02046	-562.70460	-641.64519	618.69823	-748.03618	-819.94452	605.80315	-669.81786	-521.30432	1104.41618	-639.12869	-463.02236	1031.05085	-482.16695	-494.30800	1037.44824	-804.73605	-427.14329	984.21108	-616.75741	-433.17631	981.05039	-672.22220	-437.75082	914.79311	-385.71966	-444.73945	703.28768	-342.37137	-434.67109	760.11281	-272.90720	-279.73858	803.77193	-322.37928	-214.65863	849.43862	-371.96299	-200.85000	812.74092	-347.39552	-509.88684	944.54959	-905.30562	-478.79285	696.76985	-911.13281	-472.56434	743.02777	-987.40744	-402.29804	774.83247	-981.28916	-254.16103	836.24811	-920.34177	-238.12054	802.80386	-937.99197	-685.43399	499.21894	-514.78888	-702.84520	497.64367	-721.00924	-667.36417	534.38662	-532.24384	-684.99453	532.55704	-693.20321	
